<svg xmlns="http://www.w3.org/2000/svg" viewBox="0 0 880 470" width="100%" height="auto" font-family="ui-monospace,SFMono-Regular,Menlo,monospace" role="img" aria-label="Printing: nozzle path with and without error correction">
<title>Printing: nozzle path with and without error correction</title>
<rect width="880" height="470" fill="#0a0a1c"/>
<text x="24.00" y="28.00" font-size="14" fill="#e8e8f5" text-anchor="start" font-weight="bold">Printing: nozzle path with and without error correction</text>
<text x="24.00" y="46.00" font-size="10" fill="#a9a9c7" text-anchor="start" font-weight="normal">Recreation of Figure 9. Nozzle friction against the substrate now disturbs the free-flyer, and without correction the path is unusable.</text>
<rect x="70.00" y="100.00" width="350.00" height="280.00" fill="#14142d" stroke="none" rx="3" opacity="1.0"/>
<text x="70.00" y="92.00" font-size="11" fill="#e8e8f5" text-anchor="start" font-weight="bold">A  without compensation</text>
<text x="245.00" y="414.00" font-size="10" fill="#a9a9c7" text-anchor="middle" font-weight="normal">x (mm)</text>
<text x="30.00" y="240.00" font-size="10" fill="#a9a9c7" text-anchor="middle" font-weight="normal" transform="rotate(-90 30.00 240.00)">y (mm)</text>
<line x1="70.00" y1="100.00" x2="70.00" y2="380.00" stroke="#2a2a52" stroke-width="0.7" opacity="1.0"/>
<text x="70.00" y="396.00" font-size="9" fill="#a9a9c7" text-anchor="middle" font-weight="normal">-66</text>
<line x1="157.50" y1="100.00" x2="157.50" y2="380.00" stroke="#2a2a52" stroke-width="0.7" opacity="1.0"/>
<text x="157.50" y="396.00" font-size="9" fill="#a9a9c7" text-anchor="middle" font-weight="normal">-32</text>
<line x1="245.00" y1="100.00" x2="245.00" y2="380.00" stroke="#2a2a52" stroke-width="0.7" opacity="1.0"/>
<text x="245.00" y="396.00" font-size="9" fill="#a9a9c7" text-anchor="middle" font-weight="normal">2</text>
<line x1="332.50" y1="100.00" x2="332.50" y2="380.00" stroke="#2a2a52" stroke-width="0.7" opacity="1.0"/>
<text x="332.50" y="396.00" font-size="9" fill="#a9a9c7" text-anchor="middle" font-weight="normal">36</text>
<line x1="420.00" y1="100.00" x2="420.00" y2="380.00" stroke="#2a2a52" stroke-width="0.7" opacity="1.0"/>
<text x="420.00" y="396.00" font-size="9" fill="#a9a9c7" text-anchor="middle" font-weight="normal">70</text>
<line x1="70.00" y1="380.00" x2="420.00" y2="380.00" stroke="#2a2a52" stroke-width="0.7" opacity="1.0"/>
<text x="62.00" y="383.00" font-size="9" fill="#a9a9c7" text-anchor="end" font-weight="normal">389</text>
<line x1="70.00" y1="310.00" x2="420.00" y2="310.00" stroke="#2a2a52" stroke-width="0.7" opacity="1.0"/>
<text x="62.00" y="313.00" font-size="9" fill="#a9a9c7" text-anchor="end" font-weight="normal">402</text>
<line x1="70.00" y1="240.00" x2="420.00" y2="240.00" stroke="#2a2a52" stroke-width="0.7" opacity="1.0"/>
<text x="62.00" y="243.00" font-size="9" fill="#a9a9c7" text-anchor="end" font-weight="normal">415</text>
<line x1="70.00" y1="170.00" x2="420.00" y2="170.00" stroke="#2a2a52" stroke-width="0.7" opacity="1.0"/>
<text x="62.00" y="173.00" font-size="9" fill="#a9a9c7" text-anchor="end" font-weight="normal">428</text>
<line x1="70.00" y1="100.00" x2="420.00" y2="100.00" stroke="#2a2a52" stroke-width="0.7" opacity="1.0"/>
<text x="62.00" y="103.00" font-size="9" fill="#a9a9c7" text-anchor="end" font-weight="normal">441</text>
<polyline points="99.3,320.8 134.3,188.0 169.5,321.7 204.7,188.0 239.9,321.7 275.1,188.0 310.3,321.7 345.5,188.0 380.7,321.7 380.7,188.0 99.1,188.0" fill="none" stroke="#e8e8f5" stroke-width="1.6" stroke-linejoin="round" stroke-linecap="round" opacity="0.85"/>
<polyline points="97.6,320.2 97.6,320.2 97.7,319.0 97.7,318.4 97.5,317.9 96.4,316.6 95.9,316.2 95.3,315.9 94.0,315.7 91.9,314.9 89.8,314.6 88.0,314.1 87.0,314.2 85.4,313.7 85.5,312.9 89.0,307.7 93.1,298.8 101.1,276.8 101.6,274.7 102.0,271.9 101.9,269.0 101.5,262.9 102.1,258.0 105.1,247.9 105.4,246.0 105.4,243.0 105.1,239.4 105.4,236.6 110.0,222.1 112.4,216.6 120.2,203.6 122.2,200.4 123.2,198.4 123.5,198.5 124.7,199.6 125.0,199.8 125.3,199.8 125.6,199.7 126.3,198.5 126.9,196.8 128.4,193.6 129.8,191.6 130.5,190.5 132.3,188.8 134.0,188.2 134.2,188.1 134.5,188.5 134.3,190.8 135.3,193.9 137.4,198.7 139.8,206.6 147.9,227.3 148.8,230.4 149.5,234.8 149.7,239.2 149.6,244.2 151.0,256.2 151.5,267.0 154.1,282.0 156.2,300.8 156.8,303.2 157.5,305.0 159.9,308.8 160.6,310.2 161.1,310.6 162.8,309.2 164.4,308.4 164.8,308.3 165.2,308.4 166.1,309.0 166.3,309.3 166.5,312.6 165.6,320.1 165.7,320.5 166.4,321.1 166.6,321.1 167.7,320.3 169.2,317.3 171.6,306.3 175.4,293.0 176.2,288.4 175.9,277.4 176.3,272.0 177.1,266.5 178.1,263.3 180.3,257.7 187.5,234.5 189.5,229.3 192.4,213.6 195.6,201.6 196.1,203.1 196.3,203.3 197.0,203.5 197.3,203.4 198.0,202.8 198.3,202.3 199.0,201.4 199.5,200.2 201.0,195.9 201.8,192.9 201.8,191.2 201.4,190.6 200.3,191.0 200.4,191.9 202.0,195.0 204.7,199.3 207.8,206.0 210.6,213.1 213.3,219.8 219.1,238.7 219.5,241.0 219.7,250.9 220.7,257.7 222.9,266.5 231.3,296.7 232.4,307.9 233.0,306.6 233.1,306.5 233.5,307.2 233.7,309.0 234.5,311.6 234.9,312.4 235.0,313.4 234.9,316.7 235.5,317.1 237.3,316.6 237.6,316.5 239.9,314.4 241.8,311.0 243.2,307.6 244.4,302.8 245.1,297.9 247.4,290.1 254.1,271.8 255.5,267.0 255.9,264.0 256.0,250.2 256.9,239.7 257.7,235.4 261.0,225.1 265.9,213.0 266.7,210.2 267.8,199.9 268.0,198.0 268.0,200.2 267.8,199.5 268.0,194.3 267.7,191.9 266.5,188.3 265.3,185.9 263.3,183.2 258.4,178.0 253.4,173.7 247.0,169.2 245.6,168.1 235.3,161.3 227.7,156.6 223.6,153.8 211.5,146.2 203.6,141.4 201.8,140.1 192.1,134.5 186.1,132.1 185.7,132.2 185.4,132.4 185.3,132.6 185.4,133.0 186.6,135.1 189.3,138.7 195.4,145.6 216.7,168.7 219.9,172.2 233.4,188.6 239.9,196.9 246.2,205.9 252.1,214.9 254.8,219.1 257.4,223.7 259.8,228.2 262.1,232.8 264.2,237.2 267.8,245.6 271.0,254.2 274.9,266.3 282.9,293.9 286.7,304.9 291.2,316.4 294.7,324.2 303.7,341.2 308.0,346.7 308.5,347.8 308.8,347.9 310.8,342.4 310.7,343.4 309.9,345.1 310.0,346.0 310.1,346.2 311.0,346.8 312.2,346.3 314.0,344.4 316.0,340.7 317.9,335.5 318.7,332.3 319.2,326.5 319.1,316.5 319.6,312.3 325.1,290.2 326.0,283.8 326.1,277.4 327.0,271.4 328.4,266.6 330.9,259.0 331.6,255.7 331.8,253.5 331.5,245.0 332.3,239.7 333.4,234.3 334.0,228.1 334.1,221.2 334.8,217.2 335.8,214.2 340.1,205.3 340.6,204.1 340.8,203.8 341.9,205.2 342.1,205.3 342.6,205.0 342.6,204.1 341.0,198.2 340.9,196.3 342.0,194.2 342.3,193.7 345.1,192.5 346.3,192.5 346.6,192.3 347.4,192.8 350.3,196.9 352.5,199.6 354.3,202.9 354.8,204.5 357.2,218.4 357.6,224.8 358.2,227.9 360.9,237.9 362.4,246.1 365.9,275.2 366.0,280.0 367.4,289.8 370.6,302.9 372.0,306.8 372.2,306.7 373.0,305.9 373.6,305.6 374.3,305.5 375.1,305.6 376.1,305.9 377.2,306.4 379.4,307.2 381.6,308.4 383.6,310.0 385.4,311.3 386.9,312.7 389.6,316.0 392.0,319.6 392.3,320.1 393.1,320.7 393.2,321.0 392.8,320.2 392.4,319.7 391.7,317.1 391.5,314.7 394.1,299.6 394.3,289.9 393.9,285.9 393.0,278.2 393.1,261.6 392.9,257.7 389.2,233.2 387.9,226.8 387.4,220.5 387.3,206.3 387.7,202.8 387.5,202.6 394.8,201.4 399.2,200.1 401.0,199.4 402.3,198.5 403.7,197.1 404.0,196.6 404.6,194.0 404.3,190.8 403.3,187.7 401.3,185.1 398.5,183.0 395.5,181.6 387.5,179.2 386.2,179.2 385.1,179.6 382.9,181.0 380.7,183.4 377.6,185.2 374.8,185.9 366.2,186.7 356.0,186.2 354.3,186.7 346.7,186.3 342.9,187.0 334.5,190.1 332.0,190.5 302.8,186.3 298.8,186.4 298.2,186.8 298.1,187.0 298.5,188.2 297.2,188.6 283.4,188.8 280.0,189.5 276.2,188.5 269.8,185.6 268.1,185.1 265.3,184.9 249.2,185.8 247.0,184.9 245.1,184.9 226.9,188.7 216.5,187.8 215.0,186.8 207.1,185.1 200.2,184.7 193.8,183.1 186.8,182.7 176.2,184.3 165.2,183.8 160.7,182.3 149.8,180.7 146.3,179.6 141.2,179.2 131.4,180.1 129.3,179.7 128.4,179.6" fill="none" stroke="#ff5c8a" stroke-width="1.0" stroke-linejoin="round" stroke-linecap="round" opacity="0.9"/>
<text x="70.00" y="412.00" font-size="9" fill="#e8e8f5" text-anchor="start" font-weight="normal">sim  mean 8.70 mm   max 48.05 mm</text>
<text x="70.00" y="428.00" font-size="9" fill="#a9a9c7" text-anchor="start" font-weight="normal">paper mean 8.42 mm   max 55.45 mm</text>
<rect x="490.00" y="100.00" width="350.00" height="280.00" fill="#14142d" stroke="none" rx="3" opacity="1.0"/>
<text x="490.00" y="92.00" font-size="11" fill="#e8e8f5" text-anchor="start" font-weight="bold">B  with compensation</text>
<text x="665.00" y="414.00" font-size="10" fill="#a9a9c7" text-anchor="middle" font-weight="normal">x (mm)</text>
<text x="450.00" y="240.00" font-size="10" fill="#a9a9c7" text-anchor="middle" font-weight="normal" transform="rotate(-90 450.00 240.00)">y (mm)</text>
<line x1="490.00" y1="100.00" x2="490.00" y2="380.00" stroke="#2a2a52" stroke-width="0.7" opacity="1.0"/>
<text x="490.00" y="396.00" font-size="9" fill="#a9a9c7" text-anchor="middle" font-weight="normal">-66</text>
<line x1="577.50" y1="100.00" x2="577.50" y2="380.00" stroke="#2a2a52" stroke-width="0.7" opacity="1.0"/>
<text x="577.50" y="396.00" font-size="9" fill="#a9a9c7" text-anchor="middle" font-weight="normal">-32</text>
<line x1="665.00" y1="100.00" x2="665.00" y2="380.00" stroke="#2a2a52" stroke-width="0.7" opacity="1.0"/>
<text x="665.00" y="396.00" font-size="9" fill="#a9a9c7" text-anchor="middle" font-weight="normal">2</text>
<line x1="752.50" y1="100.00" x2="752.50" y2="380.00" stroke="#2a2a52" stroke-width="0.7" opacity="1.0"/>
<text x="752.50" y="396.00" font-size="9" fill="#a9a9c7" text-anchor="middle" font-weight="normal">36</text>
<line x1="840.00" y1="100.00" x2="840.00" y2="380.00" stroke="#2a2a52" stroke-width="0.7" opacity="1.0"/>
<text x="840.00" y="396.00" font-size="9" fill="#a9a9c7" text-anchor="middle" font-weight="normal">70</text>
<line x1="490.00" y1="380.00" x2="840.00" y2="380.00" stroke="#2a2a52" stroke-width="0.7" opacity="1.0"/>
<text x="482.00" y="383.00" font-size="9" fill="#a9a9c7" text-anchor="end" font-weight="normal">389</text>
<line x1="490.00" y1="310.00" x2="840.00" y2="310.00" stroke="#2a2a52" stroke-width="0.7" opacity="1.0"/>
<text x="482.00" y="313.00" font-size="9" fill="#a9a9c7" text-anchor="end" font-weight="normal">402</text>
<line x1="490.00" y1="240.00" x2="840.00" y2="240.00" stroke="#2a2a52" stroke-width="0.7" opacity="1.0"/>
<text x="482.00" y="243.00" font-size="9" fill="#a9a9c7" text-anchor="end" font-weight="normal">415</text>
<line x1="490.00" y1="170.00" x2="840.00" y2="170.00" stroke="#2a2a52" stroke-width="0.7" opacity="1.0"/>
<text x="482.00" y="173.00" font-size="9" fill="#a9a9c7" text-anchor="end" font-weight="normal">428</text>
<line x1="490.00" y1="100.00" x2="840.00" y2="100.00" stroke="#2a2a52" stroke-width="0.7" opacity="1.0"/>
<text x="482.00" y="103.00" font-size="9" fill="#a9a9c7" text-anchor="end" font-weight="normal">441</text>
<polyline points="519.3,320.8 554.3,188.0 589.5,321.7 624.7,188.0 659.9,321.7 695.1,188.0 730.3,321.7 765.5,188.0 800.7,321.7 800.7,188.0 519.1,188.0" fill="none" stroke="#e8e8f5" stroke-width="1.6" stroke-linejoin="round" stroke-linecap="round" opacity="0.85"/>
<polyline points="517.7,320.2 519.2,319.6 520.2,320.1 520.1,318.5 519.7,318.3 519.5,318.0 519.3,316.7 519.8,316.3 520.6,314.6 521.1,314.1 520.6,312.4 521.5,310.5 521.3,309.8 521.4,309.1 521.9,307.9 522.2,306.8 522.6,305.9 522.8,305.0 522.6,304.3 522.7,304.1 524.4,302.3 524.7,301.2 524.7,300.5 524.4,300.4 524.2,299.9 524.5,297.6 525.4,295.8 526.0,295.0 526.5,294.8 526.7,293.4 526.6,291.0 527.2,290.0 527.8,289.7 527.5,289.7 526.7,289.1 528.3,287.3 529.0,287.3 528.6,287.3 528.0,286.9 528.8,286.2 529.1,283.6 528.5,283.3 529.0,283.0 529.5,282.7 529.8,282.7 530.5,281.9 530.1,280.5 530.8,280.3 530.4,278.1 530.7,276.5 531.2,275.6 530.6,275.4 531.4,273.0 531.9,271.7 532.6,271.3 532.5,271.5 532.7,269.9 533.6,266.8 534.0,266.7 534.1,265.4 534.0,264.1 533.6,262.7 534.4,262.1 534.7,260.7 534.9,260.8 535.2,260.6 535.7,259.6 536.3,258.2 536.0,257.9 535.6,256.8 535.7,255.6 536.0,255.3 536.2,255.3 536.8,253.3 537.6,253.3 538.0,251.2 537.8,250.7 537.6,251.0 538.3,249.6 538.0,249.8 538.7,248.7 538.3,248.2 538.3,247.1 539.1,244.6 538.6,245.1 539.4,244.1 540.4,242.1 540.6,241.9 540.8,241.9 541.1,240.0 540.9,238.0 540.9,237.0 541.6,237.3 541.7,234.8 542.2,234.7 542.2,234.0 542.0,232.9 541.9,231.1 542.8,231.0 543.2,230.1 543.1,229.4 543.9,227.5 543.3,227.0 543.6,226.9 544.9,223.9 545.0,223.2 545.3,223.0 545.3,221.0 545.6,220.9 546.2,219.3 546.3,220.1 546.3,219.2 546.1,218.6 547.1,215.8 546.7,212.7 547.7,212.8 547.5,211.7 547.5,211.0 548.6,210.0 549.3,208.6 548.9,208.4 548.6,207.4 550.0,207.8 550.2,207.5 550.0,204.9 550.5,203.0 550.5,202.5 550.3,202.0 550.3,201.3 550.8,200.5 551.9,201.4 551.5,197.9 551.6,198.1 551.9,197.9 552.6,196.8 553.0,194.8 553.0,196.2 553.2,195.0 553.1,193.7 553.2,192.6 553.9,191.3 554.1,190.2 554.9,189.1 554.6,189.6 555.4,189.6 554.7,190.4 555.1,192.2 555.3,193.9 555.9,195.2 556.3,194.9 556.8,195.9 556.7,197.7 557.1,198.4 557.3,198.3 557.8,198.3 557.5,200.2 557.9,201.2 558.5,201.6 558.6,202.3 559.0,203.1 558.7,203.6 558.9,203.7 559.5,206.6 560.0,207.9 560.0,208.6 559.6,209.4 560.6,210.5 560.4,211.0 559.5,211.0 559.8,211.4 561.1,211.7 561.9,212.9 561.6,215.3 561.1,216.9 560.9,217.3 562.8,217.4 562.6,221.4 563.5,221.5 562.7,223.7 563.1,226.6 564.3,226.0 565.0,227.2 564.9,228.5 565.3,229.0 565.4,231.3 566.2,231.7 566.0,232.3 565.9,233.3 566.2,234.4 566.7,235.0 567.1,235.8 567.3,237.8 567.2,237.5 566.9,238.8 567.2,241.5 567.7,241.8 569.2,243.6 569.4,243.0 568.5,242.9 568.7,243.6 569.4,245.5 570.5,247.1 569.4,247.9 570.2,248.9 570.3,248.7 570.3,250.5 570.6,251.2 571.1,250.7 571.6,252.3 571.0,253.4 571.6,254.4 571.8,254.5 572.5,256.8 572.8,257.2 573.1,258.6 572.8,258.9 573.2,259.0 573.7,259.6 573.8,260.8 573.9,261.4 573.6,263.4 573.9,264.6 573.7,264.7 574.4,266.4 574.9,266.7 574.8,268.1 575.2,268.9 575.3,268.6 575.7,270.5 575.8,272.5 576.2,272.8 576.1,273.0 576.1,273.4 576.4,274.1 577.7,275.7 577.4,277.7 577.5,277.9 577.7,277.9 577.8,278.4 578.5,279.1 578.3,280.5 579.2,282.3 579.1,282.6 578.6,282.5 579.3,283.9 580.0,284.3 580.2,285.4 581.1,287.0 580.5,288.7 580.6,290.3 581.1,290.6 581.7,291.1 582.0,292.3 581.1,292.9 581.7,293.4 581.7,294.8 582.3,295.4 582.8,295.8 582.6,296.1 582.9,297.3 582.5,297.8 583.4,298.9 583.8,301.4 585.0,301.1 585.0,303.0 584.3,304.9 584.4,305.1 585.0,305.1 585.3,306.4 585.2,307.3 586.2,309.8 586.5,311.2 586.5,310.5 587.1,311.0 587.2,313.2 587.6,314.8 588.4,315.1 588.2,316.5 588.4,315.8 588.6,316.8 588.3,316.9 588.3,317.4 589.5,320.8 589.4,322.4 589.6,322.9 589.8,320.6 590.1,320.2 590.3,320.5 590.3,319.9 591.2,318.4 590.3,317.7 591.8,314.9 592.4,314.3 592.4,312.5 591.9,311.8 591.8,311.3 592.2,310.4 592.2,309.5 592.5,308.9 593.6,307.5 592.8,305.6 593.4,304.9 593.8,304.2 593.9,302.1 594.4,300.8 594.5,301.1 595.1,299.5 595.7,298.3 595.8,297.7 595.2,297.0 596.5,296.3 596.8,294.6 597.2,293.9 597.2,293.4 597.0,292.9 597.3,293.1 597.8,291.2 598.0,290.4 597.7,289.1 597.8,288.4 598.4,288.7 598.4,288.1 598.9,286.6 598.9,285.5 599.4,283.4 599.2,282.8 599.4,283.9 600.0,282.4 600.9,282.5 600.2,280.2 601.3,276.7 602.2,274.2 602.0,274.6 602.5,273.2 603.4,271.8 603.7,270.7 603.5,270.3 603.4,270.7 603.5,268.7 603.9,267.6 604.2,267.8 604.4,267.2 604.7,265.3 604.8,265.7 604.9,264.3 604.8,262.3 605.1,261.4 605.5,261.2 605.8,261.3 605.5,260.7 605.8,259.9 605.8,258.4 606.0,256.8 606.3,255.9 607.3,255.6 606.7,254.8 607.2,254.5 607.5,253.8 607.4,252.9 608.0,251.5 607.9,251.2 608.2,249.4 608.4,249.0 608.9,248.0 608.5,247.6 609.4,246.5 609.4,244.6 609.5,244.0 609.5,244.2 609.9,243.0 611.0,241.9 610.7,239.9 611.1,238.9 612.4,238.4 612.0,238.0 612.0,237.1 611.9,236.1 612.2,234.6 612.6,233.1 613.2,233.3 613.0,232.4 613.5,231.4 613.5,230.6 613.2,229.8 614.1,229.0 614.0,228.2 614.5,227.3 614.7,226.4 615.2,225.8 614.4,224.1 615.3,224.0 615.0,222.9 615.3,221.8 616.1,221.1 617.1,221.3 616.2,220.2 616.8,218.9 616.4,218.5 617.1,218.5 618.0,218.1 617.8,216.6 617.0,215.2 618.0,214.7 618.5,213.8 618.4,213.6 619.0,212.3 619.0,208.9 619.1,207.3 619.3,207.3 619.5,207.7 619.8,205.2 620.5,204.4 620.9,203.1 620.6,201.8 621.1,203.1 620.7,201.4 621.6,200.7 622.1,200.0 622.4,199.3 623.3,198.9 622.5,198.6 622.5,197.2 623.0,195.7 623.3,194.2 623.6,192.3 623.4,192.8 623.8,191.0 624.0,190.5 624.4,190.1 624.8,187.4 624.5,188.3 625.4,188.8 625.6,190.2 625.8,190.0 625.7,192.9 625.8,193.0 625.9,195.3 626.1,194.9 626.4,195.9 627.8,196.6 627.1,197.4 627.2,198.7 628.4,201.1 628.2,201.6 628.6,201.6 628.5,203.6 628.5,204.5 629.0,204.5 630.2,205.5 629.0,206.4 629.7,206.7 629.9,206.7 629.8,207.9 630.5,208.3 630.6,210.9 631.6,211.9 631.5,212.5 630.9,213.0 630.2,213.4 631.7,214.7 631.4,216.6 631.7,217.1 632.4,217.0 632.6,217.4 632.7,218.4 633.1,220.2 634.1,221.7 633.9,222.0 633.3,222.0 633.6,223.0 633.7,224.8 634.9,224.8 635.0,225.3 635.0,226.5 635.1,227.7 635.5,228.3 635.6,229.5 635.7,228.7 635.6,229.8 636.0,231.4 636.7,232.6 636.3,232.5 636.7,232.6 636.7,234.5 636.5,235.9 636.7,236.4 637.9,238.6 638.7,239.0 639.2,239.9 639.2,240.6 638.5,240.4 638.8,242.9 639.5,242.2 639.9,243.0 640.1,244.6 640.2,246.0 639.7,246.0 639.5,246.5 640.2,246.5 640.3,247.9 640.6,249.5 641.2,250.5 641.0,251.1 642.0,251.4 642.2,251.7 642.1,253.8 642.8,254.7 642.9,256.5 642.4,256.2 643.0,257.1 643.9,258.6 644.1,259.8 644.1,261.5 644.6,261.5 643.9,263.8 645.0,263.9 645.0,263.7 644.8,264.5 645.6,265.5 645.9,266.2 645.6,266.8 646.3,268.5 646.5,272.7 646.6,272.0 646.9,273.2 646.9,273.8 647.8,275.8 647.9,276.5 647.8,276.3 648.0,276.0 648.8,277.8 649.1,279.4 648.5,280.3 648.7,280.8 649.3,281.4 649.7,282.6 650.0,282.0 650.3,283.3 649.8,283.9 649.7,284.5 650.0,285.2 650.0,286.4 650.9,286.4 651.4,287.5 651.4,288.9 651.2,289.9 650.9,290.4 651.6,292.0 651.5,293.4 652.2,293.6 652.5,293.6 652.0,293.9 652.6,294.9 652.9,296.5 653.6,296.0 653.8,297.5 653.9,301.4 654.0,300.6 654.9,301.2 655.3,302.4 655.0,302.9 654.6,303.1 655.4,305.7 656.0,305.5 655.8,306.6 655.6,307.0 656.8,307.7 656.4,309.6 656.2,311.1 656.4,311.6 656.9,312.0 657.6,313.3 657.2,313.7 658.1,315.8 658.1,316.6 657.8,316.9 658.0,317.7 658.4,318.5 658.8,320.3 658.7,320.1 659.0,319.8 659.4,319.9 659.6,320.7 660.0,319.6 661.0,318.0 661.0,317.8 661.3,315.1 661.5,315.5 661.6,313.9 661.8,313.6 661.8,312.3 662.3,312.1 662.6,310.1 663.6,309.5 663.8,307.8 664.1,306.7 664.3,306.4 664.0,305.8 664.1,305.0 665.2,304.2 664.8,301.0 665.5,301.6 665.7,300.9 665.4,299.2 666.0,299.7 666.0,296.8 666.8,295.7 667.1,295.0 666.8,294.4 666.7,293.6 667.2,290.8 668.4,289.3 668.7,289.2 668.9,287.4 669.2,286.4 669.9,285.3 669.9,283.7 670.4,282.3 670.5,281.5 670.2,281.0 670.5,279.7 671.6,279.8 671.8,278.9 671.6,276.3 671.2,275.7 672.0,275.4 672.3,274.6 672.9,273.5 673.2,272.3 673.0,271.2 672.2,270.8 673.6,270.4 673.5,270.1 673.7,269.3 674.2,268.4 674.7,267.9 674.4,267.5 674.9,265.9 675.4,265.7 675.3,264.6 675.7,264.2 675.9,262.3 676.2,261.5 675.6,260.2 675.6,259.2 676.1,258.8 676.8,259.6 676.6,257.2 677.0,256.6 677.4,257.1 677.6,256.1 677.9,253.0 677.9,252.9 678.0,251.8 678.7,249.9 678.6,249.1 678.9,248.5 680.0,248.4 679.8,246.7 679.8,246.5 679.6,245.1 680.6,243.2 680.9,241.8 680.6,241.0 681.5,239.3 681.9,240.0 681.6,238.4 681.8,237.8 681.4,236.2 681.9,234.8 681.7,233.0 682.4,232.8 682.8,232.8 683.0,231.1 683.8,231.1 683.8,228.9 684.1,228.9 685.1,227.5 685.4,227.4 685.0,227.0 685.7,226.1 685.3,225.2 684.8,224.2 684.6,223.1 685.1,221.3 685.6,222.8 686.4,219.9 686.9,217.7 687.5,217.2 687.8,216.5 688.8,214.2 688.7,213.9 687.8,213.7 689.0,213.2 688.9,212.4 689.7,208.4 689.3,207.1 689.7,205.6 690.3,204.4 690.3,203.3 690.5,203.3 690.7,202.9 691.4,202.6 692.2,201.4 692.5,200.2 691.9,200.1 691.4,198.1 691.9,197.6 692.2,197.1 692.1,194.6 692.6,194.4 693.3,195.0 693.8,194.3 693.7,192.7 693.3,191.7 692.9,191.5 694.0,191.4 695.3,190.7 695.4,188.8 695.3,188.0 695.2,189.8 695.0,189.1 695.1,190.4 695.8,192.2 696.5,193.4 696.7,194.0 696.3,194.7 696.3,196.3 697.1,196.3 697.2,197.1 697.3,199.2 697.6,200.8 698.5,200.0 697.6,200.9 698.3,202.4 698.6,201.6 698.4,201.7 698.2,202.6 699.1,205.0 699.7,206.1 699.3,206.8 699.4,207.0 699.9,206.8 700.2,208.4 701.0,208.7 700.8,209.6 701.0,210.5 700.8,210.9 699.8,211.3 700.7,213.3 700.8,214.1 701.0,215.8 701.4,216.3 702.6,217.4 702.9,218.8 702.5,219.4 701.8,220.1 701.7,221.1 702.8,223.0 703.0,223.1 703.3,223.8 703.3,224.8 702.9,225.5 703.0,225.4 703.4,225.9 703.6,227.5 703.6,229.1 703.4,229.3 703.1,227.9 703.4,229.9 704.6,231.1 704.8,231.5 704.9,232.7 704.8,233.5 704.4,233.2 705.8,235.3 706.0,236.1 706.2,236.4 706.0,237.2 705.6,237.7 705.7,237.5 705.7,239.2 706.2,240.4 707.2,241.7 707.7,242.2 707.6,242.0 707.5,243.6 708.0,244.1 708.5,245.8 708.6,246.4 709.1,246.1 709.6,247.1 709.8,248.2 710.2,248.9 710.1,251.5 710.7,253.0 711.3,253.9 712.4,253.5 712.4,254.3 712.6,255.9 714.2,258.9 714.7,260.3 714.6,260.6 714.5,261.2 714.8,262.2 716.4,261.9 716.0,263.1 716.3,264.1 717.9,266.9 718.3,267.9 718.1,268.8 718.5,268.6 718.6,270.2 718.9,271.9 719.5,272.7 719.6,271.3 719.4,271.3 720.3,275.1 720.7,276.4 721.4,277.6 721.2,277.1 720.5,279.5 720.4,278.9 720.8,278.9 721.5,280.1 721.3,281.4 721.6,282.7 721.3,282.7 721.5,283.0 721.3,285.2 721.4,286.3 721.8,286.6 722.0,286.4 722.0,288.0 722.2,289.1 721.9,290.1 722.4,291.1 722.3,291.4 722.7,291.8 723.2,292.6 723.4,294.2 723.1,294.6 723.3,295.4 723.2,295.5 723.9,295.5 724.8,296.3 724.9,298.7 725.4,299.8 724.5,299.8 724.3,299.6 726.0,302.0 725.6,302.7 725.7,303.8 726.0,304.9 726.7,305.2 727.8,304.7 726.8,306.8 727.6,308.8 727.7,309.4 727.6,310.5 727.4,311.4 726.9,311.8 727.2,311.3 728.1,313.7 728.4,315.1 728.9,317.0 729.9,317.3 730.1,318.3 729.7,319.5 730.3,320.2 730.8,321.2 731.1,321.3 730.9,321.9 731.3,320.2 731.3,320.7 731.7,320.1 731.9,319.3 731.6,317.9 731.7,316.7 732.6,313.5 732.1,312.6 732.2,311.8 732.7,311.2 733.1,311.0 733.4,311.2 734.1,308.4 733.7,308.1 734.1,306.0 734.1,305.1 734.6,303.9 734.6,303.7 735.3,302.8 735.6,301.5 735.7,300.4 735.9,300.8 736.0,299.9 736.5,299.6 736.8,297.6 737.3,296.3 737.6,297.6 737.6,296.1 737.0,294.0 737.3,293.1 737.7,292.6 737.7,291.8 737.4,290.8 738.4,290.2 739.0,290.0 739.0,288.1 739.3,286.2 740.1,286.8 739.9,284.6 740.0,283.3 740.4,282.4 740.5,280.4 741.2,279.5 741.4,278.7 741.2,278.2 741.4,277.4 742.3,277.7 742.5,274.8 742.5,273.4 742.2,272.1 742.6,272.7 743.0,272.6 743.6,269.6 743.9,268.9 744.3,269.3 744.5,268.6 744.4,267.7 744.7,267.1 744.9,265.1 745.3,263.7 745.9,262.9 746.5,263.7 746.2,262.2 745.7,261.3 746.7,260.2 746.3,258.6 747.2,258.2 747.9,257.6 747.8,257.0 747.3,256.5 748.2,254.2 747.7,253.9 748.1,254.7 748.2,251.7 748.6,252.0 748.5,251.1 749.7,249.3 749.3,248.4 749.7,247.3 750.2,246.4 750.1,246.2 750.0,246.3 749.8,245.7 750.3,244.6 751.3,243.2 751.4,243.5 751.4,241.4 751.2,239.3 751.3,239.9 751.7,239.9 752.2,238.5 752.5,236.9 753.8,235.6 753.2,235.9 753.2,234.5 753.5,233.2 753.7,233.1 753.7,232.4 753.8,231.0 754.2,230.6 755.5,228.8 755.6,227.9 755.3,227.1 755.2,225.9 755.3,224.7 756.2,224.5 755.6,223.9 755.2,223.3 756.0,222.4 756.7,221.3 756.9,220.3 756.6,219.1 756.5,218.0 757.6,217.3 757.9,216.4 758.4,214.9 758.5,214.0 758.6,214.7 758.8,214.7 759.1,213.3 759.6,209.5 758.9,210.2 760.1,210.3 760.2,209.3 760.0,207.7 760.1,206.5 760.5,206.1 760.7,205.5 760.8,205.3 760.9,204.1 761.2,203.6 761.6,203.5 761.9,201.8 761.7,200.8 762.3,199.9 762.9,199.4 763.1,199.0 762.9,197.3 763.8,196.9 764.3,195.2 764.7,192.6 764.5,191.9 765.2,190.7 765.4,189.8 765.4,188.8 765.9,187.4 766.2,187.1 766.5,190.1 766.2,190.3 766.5,191.2 766.2,191.2 765.9,191.4 766.1,193.6 766.4,192.7 767.3,193.5 767.4,194.3 767.0,195.2 766.8,196.1 768.0,197.2 767.6,198.5 767.8,198.1 767.7,199.7 768.0,200.7 768.5,200.3 769.6,202.2 769.5,203.8 769.9,205.1 770.0,206.6 770.7,206.6 770.9,206.9 771.1,207.7 771.5,208.5 772.1,209.0 772.3,210.5 772.2,211.5 771.5,212.4 773.1,213.1 773.2,215.0 773.9,216.4 773.8,217.1 773.9,217.0 773.3,219.7 773.8,220.1 774.0,222.2 774.5,221.8 775.0,221.8 775.2,222.4 775.3,223.2 775.2,222.7 775.2,226.2 775.7,226.4 776.4,227.0 776.8,227.9 777.0,228.6 776.5,230.3 776.8,231.2 777.3,232.0 777.6,232.8 777.3,233.3 777.9,232.9 778.2,235.3 777.9,235.6 779.1,237.4 778.8,237.2 778.7,239.5 778.6,239.2 779.0,239.6 779.2,241.2 779.2,243.1 779.7,242.0 779.0,243.2 779.6,244.3 779.8,245.3 780.2,245.6 780.8,245.2 781.1,246.7 781.1,248.1 780.9,248.3 781.0,249.5 781.2,250.5 781.7,250.3 781.8,252.0 782.0,252.6 783.3,254.0 783.6,254.7 783.2,254.7 782.6,254.6 783.4,255.4 783.6,256.6 783.6,257.8 783.8,258.6 784.1,259.0 784.7,259.0 784.7,261.8 784.4,262.7 784.9,263.2 785.9,263.3 785.6,263.9 786.6,266.5 786.2,267.0 785.9,267.6 786.4,269.2 786.3,270.2 786.8,271.0 787.2,271.2 787.2,273.0 787.7,273.9 787.3,274.2 788.5,275.7 788.7,275.9 788.7,275.7 788.4,274.9 789.3,277.7 789.7,282.8 790.5,283.8 790.5,283.9 790.8,286.5 790.9,289.0 792.0,288.5 792.1,288.1 792.8,291.8 792.9,291.4 792.4,291.0 793.8,293.5 793.7,294.9 793.9,296.2 793.9,297.3 794.1,299.0 794.5,300.0 794.4,298.7 794.8,301.4 796.2,304.0 796.3,303.9 796.8,305.0 796.4,305.6 796.9,307.9 796.8,308.4 796.6,308.7 797.2,308.8 797.5,311.1 797.8,311.0 798.1,310.5 798.3,310.7 798.4,312.1 798.7,313.1 799.3,314.0 799.9,316.6 800.1,317.8 800.2,319.4 800.1,321.1 800.6,320.3 801.0,320.0 801.6,320.5 801.5,319.4 801.1,317.6 801.4,316.7 802.1,315.8 802.0,315.7 801.5,314.6 802.4,313.5 802.3,312.6 801.8,311.9 801.9,311.1 801.4,310.3 801.6,309.4 801.2,307.8 801.1,307.0 801.2,306.9 800.9,306.3 800.8,305.1 801.9,303.8 802.1,303.0 801.5,300.3 801.1,299.6 801.5,298.1 801.4,297.9 801.0,297.7 800.7,297.4 801.1,293.2 800.8,293.3 800.8,291.3 800.4,289.5 800.7,289.1 800.2,287.6 800.8,286.8 800.7,286.3 800.4,285.7 800.9,285.0 800.7,284.1 800.3,283.6 800.2,281.1 800.9,279.0 800.5,277.2 800.1,276.5 801.0,274.9 800.9,274.4 801.1,273.6 800.2,272.9 800.8,272.2 801.6,269.2 801.0,269.9 800.3,266.3 800.6,266.0 801.4,264.3 800.5,263.7 800.7,261.8 801.1,261.1 801.0,260.4 800.7,259.8 801.0,259.6 800.2,258.0 800.3,257.0 801.0,254.9 800.7,253.7 800.8,252.2 800.3,250.9 800.0,249.7 800.2,248.1 800.0,247.3 800.4,247.0 799.9,245.8 800.5,245.0 801.3,244.3 801.3,242.9 800.6,239.8 800.6,239.2 800.8,238.9 800.8,238.3 799.6,237.7 800.2,235.9 800.6,235.2 800.9,232.2 801.2,232.6 800.8,227.3 800.6,228.1 800.5,225.2 801.1,225.0 801.3,224.5 800.9,223.9 800.0,223.8 799.7,221.8 800.3,221.4 800.4,220.9 800.4,220.5 800.5,219.7 801.0,218.6 800.6,217.9 800.8,216.8 800.5,214.9 800.2,211.2 799.3,210.4 799.0,209.0 799.2,208.6 799.7,208.9 800.6,207.3 800.5,206.2 800.6,204.7 800.2,203.8 800.4,203.0 801.2,200.9 800.7,199.8 800.4,198.8 800.6,198.1 801.3,197.6 800.5,198.6 801.0,196.6 801.5,195.2 801.3,194.7 800.8,194.4 800.6,193.8 801.0,192.3 800.6,189.9 801.0,188.8 801.7,187.9 801.2,187.7 800.1,187.7 800.3,188.2 800.8,188.8 799.4,188.0 799.6,189.1 799.3,190.3 798.4,189.7 797.5,187.4 796.4,188.7 796.7,189.3 795.5,188.0 795.7,188.6 795.0,189.5 794.8,187.9 793.6,187.4 793.0,187.7 792.3,187.3 791.3,187.8 790.6,187.1 790.1,188.2 789.4,188.2 789.0,187.5 788.5,188.6 788.6,188.0 787.3,187.1 787.1,187.1 787.0,187.4 785.5,187.2 785.3,188.2 785.0,188.7 784.4,188.6 783.7,187.5 782.5,187.1 782.5,186.7 782.0,188.0 781.8,187.8 781.6,187.3 781.1,187.6 780.9,187.2 780.1,188.0 779.8,187.8 779.3,187.9 778.8,188.4 778.7,189.7 778.3,188.0 777.4,186.8 776.8,187.7 776.5,188.5 775.9,188.3 775.3,188.5 774.9,187.7 774.4,187.5 773.0,188.3 773.1,187.9 772.8,188.0 772.2,187.3 771.7,187.2 771.4,188.9 771.2,188.6 770.7,188.9 771.0,188.6 771.0,188.3 770.6,188.0 770.1,187.5 769.2,188.1 767.8,188.5 767.1,187.9 767.2,187.6 767.3,187.8 765.7,188.6 765.6,188.0 765.9,188.5 765.6,188.6 764.4,189.0 763.7,187.9 763.2,187.9 763.1,187.2 761.4,188.4 761.4,187.9 760.8,188.6 760.5,188.1 760.2,188.5 759.6,188.6 759.2,188.3 759.1,188.2 758.6,188.8 757.8,187.5 757.5,187.5 756.9,187.7 756.1,187.8 756.1,187.6 755.8,188.5 755.7,187.9 755.2,187.0 754.4,186.3 754.2,187.4 754.3,188.6 753.6,188.4 753.6,188.2 753.3,187.8 752.5,187.1 751.4,187.8 750.9,188.8 750.1,188.6 749.9,188.1 749.9,187.8 749.8,187.6 748.5,188.7 748.8,187.3 748.4,187.9 747.9,188.4 747.4,188.3 747.1,187.8 747.4,187.1 746.4,187.5 745.9,187.9 745.4,187.9 744.5,188.4 744.8,188.8 743.9,188.3 743.7,188.5 743.2,188.4 742.1,188.0 742.0,189.2 741.7,188.1 740.9,188.5 740.0,188.6 739.0,187.4 739.7,189.3 738.7,187.3 738.4,187.3 737.9,187.6 737.4,187.6 737.3,186.5 736.9,186.5 737.1,187.8 736.3,187.7 735.7,187.9 735.4,188.6 735.3,188.6 734.1,187.8 733.5,188.5 733.6,187.7 733.3,186.8 732.7,186.7 732.1,188.2 731.2,188.1 731.2,188.9 730.7,188.2 730.5,187.7 730.9,188.2 729.6,187.1 729.6,188.3 729.5,188.0 728.8,187.8 728.2,187.9 728.1,187.8 727.6,187.9 726.3,187.0 726.2,188.2 725.8,189.5 725.0,188.8 723.9,188.6 723.7,188.0 723.8,187.7 723.7,187.4 723.5,187.3 723.4,188.3 722.3,187.8 721.5,187.9 720.6,187.3 720.9,187.7 720.2,188.5 719.0,188.3 718.8,187.6 718.3,188.2 717.6,188.7 717.1,188.8 717.4,188.9 717.2,189.3 716.6,189.2 715.8,188.7 714.7,187.6 714.1,187.9 713.5,187.6 713.7,187.6 712.9,188.2 712.5,188.9 712.1,188.3 712.4,188.9 711.2,188.1 710.6,187.9 710.5,188.7 709.6,187.9 709.3,188.3 708.6,188.6 707.1,188.8 707.0,187.6 706.5,188.1 706.3,188.3 706.1,188.0 705.3,187.3 703.9,187.0 703.8,186.9 703.5,186.7 703.6,187.1 701.9,188.5 702.3,188.9 702.1,189.1 701.3,189.2 700.4,189.1 700.9,188.5 699.1,188.1 698.8,188.4 698.4,188.4 697.9,187.8 697.1,188.3 696.8,188.1 696.4,187.9 695.5,188.1 695.2,188.0 694.5,189.2 694.0,188.0 693.7,187.5 693.5,188.0 692.5,188.4 692.1,188.7 691.9,188.8 691.8,188.7 691.5,188.7 690.6,187.8 691.2,187.2 689.4,188.3 688.3,187.4 688.2,187.9 687.8,188.0 687.2,188.4 686.6,188.6 686.0,188.1 686.0,188.5 685.0,188.3 684.4,187.2 684.3,188.1 683.2,187.6 682.4,188.1 682.8,189.6 681.6,188.8 680.8,188.6 680.8,188.8 679.6,187.1 679.2,187.1 679.6,188.5 679.2,188.5 678.0,187.2 677.7,189.8 677.0,189.0 676.5,186.3 676.4,189.2 676.1,188.6 676.2,188.1 675.1,186.7 674.5,188.8 674.2,189.2 674.3,189.0 673.2,187.4 672.9,186.7 671.9,186.8 671.8,187.0 672.1,187.3 671.9,188.2 670.6,188.3 670.4,188.1 670.6,188.5 670.1,188.8 669.2,188.5 668.5,186.3 669.3,186.1 667.9,188.4 667.4,188.7 666.8,188.3 665.6,189.3 665.7,188.9 664.9,187.3 664.6,186.7 664.5,187.7 663.6,188.7 662.9,187.9 662.5,188.0 662.0,188.8 660.6,189.0 661.2,189.0 660.9,188.5 660.0,188.1 659.4,188.2 659.3,188.6 659.7,188.4 658.8,187.2 658.5,187.7 657.7,188.6 656.8,188.3 656.1,187.1 655.6,186.9 655.9,188.4 655.1,189.7 654.6,188.8 654.4,187.9 654.0,188.1 653.5,188.0 652.8,186.4 653.2,186.4 653.4,187.1 652.6,187.2 651.6,186.8 650.7,188.4 650.0,187.8 649.1,187.9 648.4,188.7 648.3,189.3 648.7,188.2 648.7,187.4 648.0,187.3 647.6,187.7 647.4,188.3 647.1,187.3 646.6,188.9 646.1,188.5 645.9,188.7 645.4,188.4 644.4,187.4 644.1,188.9 644.3,187.3 643.2,187.4 641.6,188.5 642.3,188.6 641.2,187.4 641.1,187.8 640.5,188.0 639.9,187.2 639.4,187.1 639.5,187.6 638.9,187.0 638.0,187.5 637.1,188.7 636.1,187.9 635.5,188.6 636.2,187.9 635.5,188.3 634.3,188.0 633.4,187.0 634.6,188.8 633.8,188.2 633.9,187.7 633.0,188.3 632.8,188.1 632.5,189.0 631.2,187.7 630.7,187.7 629.3,187.2 628.9,187.8 628.4,188.1 627.5,188.1 626.6,187.9 626.3,187.6 626.3,186.8 625.8,187.2 625.4,187.8 625.3,188.6 624.2,187.1 623.9,187.2 623.1,188.8 623.0,189.0 622.7,187.3 622.0,187.7 621.0,188.0 620.4,187.9 620.5,188.0 619.5,188.6 618.9,187.4 619.2,188.2 618.3,187.2 617.0,187.3 616.9,186.9 616.7,187.2 616.1,187.1 616.2,187.9 616.5,189.1 615.3,188.1 614.1,188.0 614.3,187.7 614.0,187.3 613.3,187.5 612.4,188.6 612.6,188.0 611.5,187.7 611.2,188.0 611.0,188.4 610.5,188.4 608.7,187.3 609.4,187.2 609.4,187.6 608.9,188.0 608.3,188.2 608.0,188.2 607.5,187.3 607.3,187.9 606.9,188.1 606.7,187.6 606.6,187.1 604.8,187.6 603.7,187.8 604.1,187.4 603.5,187.6 602.9,187.5 602.7,188.2 601.7,187.3 601.1,187.5 600.6,187.3 599.9,186.1 599.2,187.6 598.3,188.7 598.2,188.7 598.2,188.3 598.1,188.6 598.0,188.2 596.6,186.6 596.0,186.8 596.1,187.9 596.0,187.8 595.0,189.1 594.3,188.7 594.2,187.5 593.9,187.9 593.4,189.4 592.5,188.1 592.8,187.7 592.7,187.3 592.4,187.7 591.8,188.0 591.1,187.6 590.6,188.1 590.1,187.9 589.6,188.9 589.0,188.9 588.4,188.6 587.7,189.0 587.7,187.6 587.8,187.5 587.3,187.2 586.3,187.0 585.5,187.4 585.6,186.1 584.6,187.4 584.4,188.3 584.0,188.6 583.5,188.5 583.7,187.9 583.2,188.3 582.5,188.1 581.7,187.6 580.6,188.8 580.1,188.7 579.6,188.9 578.9,188.7 578.1,187.5 577.9,188.0 577.6,189.1 577.2,188.9 577.3,188.4 576.7,188.9 574.2,188.8 574.5,188.2 573.9,187.3 573.9,187.7 573.1,189.1 572.0,187.6 572.3,188.1 572.8,187.3 572.3,188.3 571.0,189.3 571.1,188.8 570.1,188.4 569.7,187.0 569.6,186.2 569.5,186.7 569.0,186.3 567.6,188.2 567.5,188.6 566.8,188.4 566.1,188.3 566.1,188.7 564.8,187.8 564.1,188.7 563.8,188.5 563.6,187.9 563.2,187.8 562.9,188.4 562.7,187.7 562.4,187.5 562.1,187.8 561.6,186.8 561.3,188.6 560.1,188.0 560.1,187.7 558.8,187.9 558.3,188.3 557.9,187.9 556.7,189.0 556.5,188.3 556.6,187.6 556.5,188.4 555.6,188.2 554.8,187.6 554.3,187.1 554.4,186.9 552.5,187.1 552.7,189.9 552.8,189.2 552.7,187.7 551.6,186.8 551.5,187.8 551.2,187.6 551.0,188.4 549.2,188.7 549.0,189.2 548.2,187.6 547.8,187.6 547.7,188.0 547.6,187.9 546.9,188.5 546.5,187.3 545.5,187.7 545.2,188.2 544.9,188.1 544.2,187.3 543.6,187.7 543.1,187.0 543.1,186.8 542.0,186.8 541.7,187.8 541.7,188.3 541.2,188.3 540.1,186.6 540.0,186.8 540.2,188.5 539.4,188.2 538.1,188.7 537.3,188.8 536.4,188.8 535.9,187.2 535.7,188.4 535.7,187.8 535.6,188.2 535.3,188.4 534.7,187.5 533.7,187.5 533.3,188.0 533.3,187.7 533.0,188.5 532.5,189.2 531.7,187.9 532.3,189.1 531.4,188.8 530.7,188.4 530.2,188.0 530.1,187.6 530.4,187.1 530.4,187.3 529.4,187.2 528.9,186.5 528.5,186.6 528.2,187.3 527.5,188.3 526.6,188.7 525.3,187.5 523.9,188.7 524.0,188.8 524.1,188.2 523.4,187.9 522.9,188.0 523.2,188.3 521.7,188.9 521.3,188.8 520.9,188.1 520.8,187.5 520.9,187.5 520.3,189.9 519.0,188.8" fill="none" stroke="#ff5c8a" stroke-width="1.0" stroke-linejoin="round" stroke-linecap="round" opacity="0.9"/>
<text x="490.00" y="412.00" font-size="9" fill="#e8e8f5" text-anchor="start" font-weight="normal">sim  mean 0.25 mm   max 1.51 mm</text>
<text x="490.00" y="428.00" font-size="9" fill="#a9a9c7" text-anchor="start" font-weight="normal">paper mean 0.27 mm   max 2.89 mm</text>
<line x1="70.00" y1="452.00" x2="100.00" y2="452.00" stroke="#e8e8f5" stroke-width="2" opacity="1.0"/>
<text x="106.00" y="456.00" font-size="10" fill="#e8e8f5" text-anchor="start" font-weight="normal">desired path</text>
<line x1="240.00" y1="452.00" x2="270.00" y2="452.00" stroke="#ff5c8a" stroke-width="2" opacity="1.0"/>
<text x="276.00" y="456.00" font-size="10" fill="#e8e8f5" text-anchor="start" font-weight="normal">achieved nozzle path</text>
</svg>